<?xml version="1.0" encoding="UTF-8" standalone="no"?>
<svg
   xmlns:svg="http://www.w3.org/2000/svg"
   xmlns="http://www.w3.org/2000/svg"
   xmlns:sodipodi="http://sodipodi.sourceforge.net/DTD/sodipodi-0.dtd"
   xmlns:inkscape="http://www.inkscape.org/namespaces/inkscape"
   inkscape:version="1.1-dev (48d18c81, 2020-07-08)"
   sodipodi:docname="Lotus-Flower-Silhouette-7.svg"
   xml:space="preserve"
   enable-background="new 0 0 2956.79 1659.6899"
   viewBox="0 0 2956.79 1659.6899"
   y="0px"
   x="0px"
   id="Layer_1"
   version="1.1"><defs
   id="defs848" /><sodipodi:namedview
   inkscape:current-layer="Layer_1"
   inkscape:window-maximized="0"
   inkscape:window-y="74"
   inkscape:window-x="0"
   inkscape:cy="831.87301"
   inkscape:cx="1478.395"
   inkscape:zoom="0.22659709"
   showgrid="false"
   id="namedview846"
   inkscape:window-height="1035"
   inkscape:window-width="1920"
   inkscape:pageshadow="2"
   inkscape:pageopacity="0"
   guidetolerance="10"
   gridtolerance="10"
   objecttolerance="10"
   borderopacity="1"
   bordercolor="#666666"
   pagecolor="#ffffff" />
<g
   style="fill:#ffffff;fill-opacity:1"
   id="g843">
	<path
   style="fill:#ffffff;fill-opacity:1"
   id="path823"
   d="M1347.8612,260.1471c42.0793-77.5947,84.3987-155.1627,130.7473-230.3021c30.3921,48.5364,58.276,98.5673,86.1864,148.5714   c21.053,38.4775,42.613,76.714,62.4919,115.8585c46.3752,100.1151,85.3059,204.9792,101.1556,314.6471   c10.353,73.9121,9.4192,151-14.7823,222.2705c-5.1499,13.2347-9.1523,27.2701-17.1572,39.1707   c-15.4762-50.7247-34.6349-100.2487-56.0613-148.705c-20.0123-46.8557-46.3219-90.5624-70.3101-135.4168   c-29.5381-53.3929-59.5566-106.5722-91.443-158.5776c-30.3921,49.4439-59.0231,99.9549-87.1737,150.7329   c-21.3464,39.3042-43.6804,78.1016-63.3724,118.2598c-26.4697,56.6749-48.8035,115.1908-68.2554,174.5875   c-24.6553-49.8439-35.7555-105.5853-37.223-160.926c-2.775-110.8418,27.377-219.4953,66.948-322.0651   C1307.0895,344.7325,1324.9138,301.132,1347.8612,260.1471z" />
	<path
   style="fill:#ffffff;fill-opacity:1"
   id="path825"
   d="M847.286,251.8217c94.2181,32.5005,181.8988,82.2643,261.6547,141.741c27.4036,20.8931,54.2467,42.5862,78.9821,66.6277   c-27.0835,53.2594-35.5687,113.697-37.2498,172.8266c-1.3074,85.0388,10.9668,170.3719,36.7694,251.4617   c-27.7238-35.7551-53.046-73.4854-82.2908-108.0934c-29.885-36.529-63.1589-70.4431-100.5953-99.261   c-44.9611-34.875-94.5117-63.1854-144.249-90.5356c-17.6909-59.3699-21.3464-121.7554-22.6006-183.3136   C838.2404,352.684,840.9888,302.0662,847.286,251.8217z" />
	<path
   style="fill:#ffffff;fill-opacity:1"
   id="path827"
   d="M2030.3353,299.1575c35.9154-18.0906,72.765-34.5011,110.8949-47.3091c8.6987,73.3519,12.3276,147.5043,6.5376,221.2301   c-3.1221,38.2899-8.272,76.7407-19.5854,113.5896c-44.801,24.5223-89.3085,49.9246-130.5873,80.1829   c-35.1416,25.6695-67.2948,55.3675-95.9524,88.1344c-36.6094,41.0657-67.9886,86.3736-100.8623,130.3473   c19.6389-60.9979,31.246-124.5038,35.5419-188.4097c4.4028-79.8357,0.9341-163.9677-35.8353-236.6524   C1868.7157,395.7509,1947.0305,342.2244,2030.3353,299.1575z" />
	<path
   style="fill:#ffffff;fill-opacity:1"
   id="path829"
   d="M433.6977,536.9844c-0.9339-18.1713-2.4282-36.4228-0.2668-54.5134c201.0039,52.1917,387.7591,154.6018,543.4817,291.513   c56.9418,50.5377,111.3219,104.6244,157.1102,165.5949c-93.0974-66.5475-191.1045-126.7181-295.2487-174.4272   c-57.8223-26.3365-117.2189-49.9507-178.937-65.4537c14.6757,37.3831,17.6642,78.0214,22.894,117.5125   c-34.2344-31.4328-73.1918-57.1022-111.8823-82.6375c-25.429-16.7037-51.2316-32.8204-77.2743-48.5104   c-15.5295-8.0317-24.415-24.0148-32.6335-38.6906C443.4904,613.2717,436.7663,574.8209,433.6977,536.9844z" />
	<path
   style="fill:#ffffff;fill-opacity:1"
   id="path831"
   d="M1932.7819,826.3627c165.9691-161.4062,372.4161-283.1342,597.3282-340.4768   c1.1472,55.2346-2.8818,112.7101-27.3503,163.1676c-7.311,13.208-14.9424,27.2701-27.27,36.5023   c-48.3499,29.1645-96.1394,59.3699-142.1409,92.1903c-18.438,12.9943-36.0491,27.1632-52.8328,42.2396   c4.2961-39.4377,8.2986-79.6494,22.2004-117.0591c-97.0198,25.2421-188.8364,67.3215-276.7573,114.9244   c-68.0952,37.0893-133.202,79.3823-196.281,124.3696C1859.7769,900.1152,1896.2527,862.9185,1932.7819,826.3627z" />
	<path
   style="fill:#ffffff;fill-opacity:1"
   id="path833"
   d="M1354.2118,839.4639c41.7324-76.7667,83.5715-153.5608,129.52-227.9269   c44.6942,71.9108,85.2258,146.3304,125.7041,220.6693c24.6284,43.2272,44.1071,89.1219,62.4119,135.3367   c39.7577,102.4102,70.1498,210.9302,67.8284,321.6918c-1.2542,58.009-13.1014,116.4722-39.7312,168.344   c-42.7729,85.5195-125.8909,145.6367-216.4534,172.2664c-44.1073-14.0087-86.6935-33.9415-123.5696-62.145   c-32.3666-24.3621-60.2505-54.7538-81.2234-89.4419c-27.03-44.0806-42.266-94.7251-48.163-145.9031   c-7.0444-60.6246-1.5477-122.0486,10.0594-181.739c11.874-59.7966,30.0719-118.1796,51.9788-174.988   C1310.8517,929.2529,1329.8234,882.9842,1354.2118,839.4639z" />
	<path
   style="fill:#ffffff;fill-opacity:1"
   id="path835"
   d="M53.1698,649.4001c116.4184,9.2062,232.063,32.0999,342.3444,70.7904c93.0173,33.1937,183.4197,79.0891,255.8378,147.2379   c15.0759,14.0347,28.9511,29.3514,41.8925,45.3613c-7.8448,64.6265-8.0583,130.1062-2.3481,194.9197   c5.7635,62.6786,17.851,125.1709,40.5851,184.0333c17.8776,46.0818,42.7196,89.9226,76.2336,126.5051   c9.7127,10.5397,20.546,19.9856,30.5789,30.2582c-52.5657-5.3894-104.0909-18.5713-154.2285-35.0079   c-98.7008-33.3539-191.8516-84.9592-269.2059-155.0825c-92.2969-82.9039-159.485-192.2513-196.0142-310.5378   c-12.4343-54.7538-30.0719-108.4933-54.4603-159.1385C138.2356,734.9998,103.3074,683.4478,53.1698,649.4001z" />
	<path
   style="fill:#ffffff;fill-opacity:1"
   id="path837"
   d="M2785.6277,663.6491c39.0908-6.5105,78.4751-11.2068,117.9924-14.3024c-34.4744,24.0415-62.5984,56.1681-84.6653,91.817   c-31.9397,51.4719-54.22,108.4132-70.5769,166.6093c-5.8438,19.4521-8.7788,39.7308-16.1433,58.7562   c-33.9941,99.9281-89.7354,192.7855-164.4749,267.5516c-72.7646,73.1917-162.2065,128.7994-258.2124,166.1559   c-61.6113,23.6942-125.9175,41.2252-191.6113,48.483c30.3386-25.9626,56.2214-57.0215,76.3403-91.5499   c30.7922-52.726,49.6306-111.6418,61.1045-171.3856c16.6235-89.8152,18.9182-182.2191,8.4851-272.915   c56.5415-70.6034,134.0024-121.3815,215.3062-159.1912C2576.2986,709.0104,2680.416,681.1534,2785.6277,663.6491z" />
	<path
   style="fill:#ffffff;fill-opacity:1"
   id="path839"
   d="M743.8355,832.6068c51.4451,16.2496,101.7695,36.0756,150.9999,58.1693c52.4856,23.721,103.7973,50.5644,151.1865,83.4375   c33.6475,23.508,65.5872,50.4849,89.9221,83.8121c12.1141,17.3707,23.2144,36.6625,26.4163,57.822   c-10.6998,68.7892-13.7952,139.0193-6.484,208.342c5.6569,52.6991,17.7175,105.2914,41.092,153.134   c17.3975,36.0757,42.8798,67.829,73.6187,93.4711c-102.2764,26.3633-216.7468,12.995-305.575-46.0017   c-42.2927-27.9104-77.9413-65.1599-106.1721-107.079c-56.5948-84.7189-90.6959-184.1135-98.4073-285.6963   c-6.5907-71.111,1.014-142.3547,3.202-213.4382C763.2609,889.1481,762.4337,857.0216,743.8355,832.6068z" />
	<path
   style="fill:#ffffff;fill-opacity:1"
   id="path841"
   d="M2185.5776,841.8391c9.3125-3.2286,18.6248-6.6441,28.2307-9.0192c-18.3044,23.3745-19.2651,54.514-19.9055,82.9046   c1.9478,72.0711,9.9263,144.2491,3.2554,216.3469c-7.6848,101.209-41.6257,200.257-97.7937,284.8156   c-26.4429,39.3309-59.2898,74.6327-98.1671,101.9828c-89.9221,64.0396-208.9822,79.222-314.6475,51.765   c33.3274-26.416,59.3434-61.291,77.0609-99.7946c21.3732-45.788,32.5-95.7126,37.9967-145.7168   c7.4714-69.6959,4.3229-140.2727-6.4305-209.4358c2.6149-18.411,11.954-35.1414,21.6133-50.7246   c28.0707-41.7054,68.2821-73.4053,109.7477-100.915C2006.9609,911.9891,2095.4954,873.752,2185.5776,841.8391z" />
</g>
</svg>
